<svg id="soundsleeper-logo" xmlns="http://www.w3.org/2000/svg" viewBox="0 0 479.52 110.85">
  <title>SoundSleeper</title>
  <path d="M272.13,529.72a8.21,8.21,0,0,0,2.48,2.92,10.75,10.75,0,0,0,3.64,1.65,17.16,17.16,0,0,0,4.32.54,22.39,22.39,0,0,0,3.24-.25,11.37,11.37,0,0,0,3.24-1,7.21,7.21,0,0,0,2.52-2,5,5,0,0,0,1-3.21,4.49,4.49,0,0,0-1.33-3.38,10.71,10.71,0,0,0-3.49-2.16,33.91,33.91,0,0,0-4.9-1.51q-2.73-.64-5.54-1.44a50.9,50.9,0,0,1-5.62-1.76,19.29,19.29,0,0,1-4.89-2.71A12.15,12.15,0,0,1,262,505.31a13.41,13.41,0,0,1,1.7-6.87,15.14,15.14,0,0,1,4.42-4.86,19.17,19.17,0,0,1,6.2-2.88,26,26,0,0,1,6.91-.94,32.8,32.8,0,0,1,7.74.9,19.22,19.22,0,0,1,6.59,2.92,14.77,14.77,0,0,1,4.57,5.14,15.89,15.89,0,0,1,1.69,7.6H290.85a9.23,9.23,0,0,0-1-3.82,6.34,6.34,0,0,0-2.19-2.37,9.44,9.44,0,0,0-3.13-1.23,20.18,20.18,0,0,0-3.86-.36,13.33,13.33,0,0,0-2.73.29,7.5,7.5,0,0,0-2.49,1,6.28,6.28,0,0,0-1.83,1.8,4.83,4.83,0,0,0-.72,2.74,4.64,4.64,0,0,0,.57,2.44,5.07,5.07,0,0,0,2.27,1.73,29,29,0,0,0,4.68,1.59c2,.53,4.6,1.2,7.81,2,1,.19,2.29.54,4,1.05a19.06,19.06,0,0,1,5.08,2.41,15.33,15.33,0,0,1,4.35,4.43,12.53,12.53,0,0,1,1.84,7.09,15.72,15.72,0,0,1-1.37,6.55,14.15,14.15,0,0,1-4.07,5.22,19.54,19.54,0,0,1-6.69,3.42,31.58,31.58,0,0,1-9.26,1.22,32.26,32.26,0,0,1-8.24-1,20.65,20.65,0,0,1-7.06-3.28,16.12,16.12,0,0,1-4.86-5.68,17,17,0,0,1-1.72-8.21h10.94A9.34,9.34,0,0,0,272.13,529.72Z" transform="translate(-260.24 -444.58)" fill="#EEE"/>
  <path d="M309.35,515.72a17,17,0,0,1,9.93-10.16,21.44,21.44,0,0,1,7.92-1.4,21.7,21.7,0,0,1,8,1.4,17,17,0,0,1,10,10.16,22.86,22.86,0,0,1,1.37,8.1,22.6,22.6,0,0,1-1.37,8.06,17.54,17.54,0,0,1-3.89,6.16,16.91,16.91,0,0,1-6.08,3.92,22.12,22.12,0,0,1-8,1.37,21.86,21.86,0,0,1-7.92-1.37,17,17,0,0,1-6-3.92,17.54,17.54,0,0,1-3.89-6.16,22.6,22.6,0,0,1-1.37-8.06A22.86,22.86,0,0,1,309.35,515.72Zm9.29,12.45a11.56,11.56,0,0,0,1.47,3.82,7.87,7.87,0,0,0,2.77,2.7,8.52,8.52,0,0,0,4.32,1,8.71,8.71,0,0,0,4.36-1,7.74,7.74,0,0,0,2.81-2.7,11.56,11.56,0,0,0,1.47-3.82,21.61,21.61,0,0,0,.44-4.35,22.26,22.26,0,0,0-.44-4.4,11.09,11.09,0,0,0-1.47-3.81,8.08,8.08,0,0,0-2.81-2.7,8.4,8.4,0,0,0-4.36-1,7.88,7.88,0,0,0-7.09,3.75,11.09,11.09,0,0,0-1.47,3.81,22.26,22.26,0,0,0-.44,4.4A21.61,21.61,0,0,0,318.64,528.17Z" transform="translate(-260.24 -444.58)" fill="#EEE"/>
  <path d="M378.32,542.39v-5.18h-.21a11.54,11.54,0,0,1-5,4.68,14.91,14.91,0,0,1-6.34,1.44,17.89,17.89,0,0,1-6.73-1.08,9.74,9.74,0,0,1-4.14-3.06,11.84,11.84,0,0,1-2.12-4.83,29.76,29.76,0,0,1-.62-6.3V505.17h10.23v21c0,3.07.48,5.37,1.44,6.88s2.66,2.27,5.11,2.27q4.17,0,6.05-2.49c1.25-1.65,1.87-4.38,1.87-8.17V505.17H388v37.22Z" transform="translate(-260.24 -444.58)" fill="#EEE"/>
  <path d="M405.54,505.17v5.18h.22a11.63,11.63,0,0,1,5-4.71,14.46,14.46,0,0,1,6.33-1.48,17.22,17.22,0,0,1,6.73,1.12,9.83,9.83,0,0,1,4.14,3.09,12,12,0,0,1,2.13,4.83,29.79,29.79,0,0,1,.61,6.3v22.89H420.52v-21c0-3.07-.48-5.37-1.44-6.88s-2.67-2.27-5.12-2.27c-2.78,0-4.8.83-6,2.49s-1.88,4.38-1.88,8.17v19.51H395.82V505.17Z" transform="translate(-260.24 -444.58)" fill="#EEE"/>
  <path d="M464.94,537.64a10.52,10.52,0,0,1-4.72,4.36,17.22,17.22,0,0,1-13.93-.29,14.75,14.75,0,0,1-5.22-4.39,19.94,19.94,0,0,1-3.1-6.38,26.92,26.92,0,0,1-1-7.48,25.35,25.35,0,0,1,1-7.24,18.89,18.89,0,0,1,3.1-6.16,15.46,15.46,0,0,1,5.15-4.28,15.29,15.29,0,0,1,7.2-1.62,14.74,14.74,0,0,1,6.3,1.4,11,11,0,0,1,4.71,4.14h.15V491H474.8v51.41h-9.72v-4.75Zm-.43-18.4A10.81,10.81,0,0,0,463,515.5a8.37,8.37,0,0,0-2.7-2.63,7.94,7.94,0,0,0-4.18-1,8.29,8.29,0,0,0-4.24,1,7.91,7.91,0,0,0-2.78,2.67,11.79,11.79,0,0,0-1.51,3.78,20.58,20.58,0,0,0-.47,4.42,18.68,18.68,0,0,0,.51,4.32,11.61,11.61,0,0,0,1.62,3.86,8.93,8.93,0,0,0,2.81,2.73,7.53,7.53,0,0,0,4.06,1.05,8.16,8.16,0,0,0,4.22-1,7.76,7.76,0,0,0,2.7-2.7,12.2,12.2,0,0,0,1.44-3.85,23.37,23.37,0,0,0,.43-4.47A22.87,22.87,0,0,0,464.51,519.24Z" transform="translate(-260.24 -444.58)" fill="#EEE"/>
  <path d="M492.23,529.72a8.21,8.21,0,0,0,2.48,2.92,10.79,10.79,0,0,0,3.63,1.65,17.28,17.28,0,0,0,4.32.54,22.41,22.41,0,0,0,3.25-.25,11.37,11.37,0,0,0,3.24-1,7.09,7.09,0,0,0,2.51-2,4.93,4.93,0,0,0,1-3.21,4.49,4.49,0,0,0-1.33-3.38,10.71,10.71,0,0,0-3.49-2.16,33.91,33.91,0,0,0-4.9-1.51q-2.73-.64-5.54-1.44a50.9,50.9,0,0,1-5.62-1.76,19.29,19.29,0,0,1-4.89-2.71,12.15,12.15,0,0,1-4.83-10.15,13.41,13.41,0,0,1,1.7-6.87,15.14,15.14,0,0,1,4.42-4.86,19.22,19.22,0,0,1,6.19-2.88,26.16,26.16,0,0,1,6.92-.94,32.8,32.8,0,0,1,7.74.9,19.17,19.17,0,0,1,6.58,2.92,14.8,14.8,0,0,1,4.58,5.14,15.89,15.89,0,0,1,1.69,7.6H511a9.23,9.23,0,0,0-1-3.82,6.34,6.34,0,0,0-2.19-2.37,9.44,9.44,0,0,0-3.13-1.23,20.18,20.18,0,0,0-3.86-.36,13.33,13.33,0,0,0-2.73.29,7.5,7.5,0,0,0-2.49,1,6.28,6.28,0,0,0-1.83,1.8,4.83,4.83,0,0,0-.72,2.74,4.64,4.64,0,0,0,.57,2.44,5.07,5.07,0,0,0,2.27,1.73,29,29,0,0,0,4.68,1.59c2,.53,4.6,1.2,7.81,2,1,.19,2.29.54,4,1.05a18.86,18.86,0,0,1,5.07,2.41,15.23,15.23,0,0,1,4.36,4.43,12.61,12.61,0,0,1,1.84,7.09,15.72,15.72,0,0,1-1.37,6.55,14.15,14.15,0,0,1-4.07,5.22,19.54,19.54,0,0,1-6.69,3.42,31.58,31.58,0,0,1-9.26,1.22,32.26,32.26,0,0,1-8.24-1,20.65,20.65,0,0,1-7.06-3.28,16.12,16.12,0,0,1-4.86-5.68,17.09,17.09,0,0,1-1.73-8.21h11A9.34,9.34,0,0,0,492.23,529.72Z" transform="translate(-260.24 -444.58)" fill="#EEE"/>
  <path d="M539.75,491v51.41H529.52V491Z" transform="translate(-260.24 -444.58)" fill="#EEE"/>
  <path d="M558.75,533.46q2.31,2.24,6.63,2.24a9.1,9.1,0,0,0,5.32-1.55,6.45,6.45,0,0,0,2.74-3.28h9q-2.16,6.71-6.62,9.58a19.52,19.52,0,0,1-10.8,2.88,21.17,21.17,0,0,1-7.92-1.41,16.29,16.29,0,0,1-6-4,18.06,18.06,0,0,1-3.78-6.19,22.62,22.62,0,0,1-1.33-7.92,21.54,21.54,0,0,1,1.37-7.78,17.93,17.93,0,0,1,9.9-10.37,19.36,19.36,0,0,1,7.74-1.51A17.67,17.67,0,0,1,573.3,506a16.5,16.5,0,0,1,5.79,4.93,20.3,20.3,0,0,1,3.28,7.05,26.42,26.42,0,0,1,.72,8.28H556.23C556.38,529.58,557.21,532,558.75,533.46Zm11.56-19.58a7.21,7.21,0,0,0-5.58-2,8.93,8.93,0,0,0-4.07.83,7.93,7.93,0,0,0-2.59,2,7.51,7.51,0,0,0-1.37,2.6,12.06,12.06,0,0,0-.47,2.44h16.63A11.83,11.83,0,0,0,570.31,513.88Z" transform="translate(-260.24 -444.58)" fill="#EEE"/>
  <path d="M600.08,533.46c1.54,1.49,3.74,2.24,6.62,2.24a9.13,9.13,0,0,0,5.33-1.55,6.45,6.45,0,0,0,2.74-3.28h9q-2.16,6.71-6.63,9.58a19.47,19.47,0,0,1-10.8,2.88,21.24,21.24,0,0,1-7.92-1.41,16.33,16.33,0,0,1-6-4,18.06,18.06,0,0,1-3.78-6.19,22.62,22.62,0,0,1-1.33-7.92A21.75,21.75,0,0,1,588.7,516a18,18,0,0,1,9.9-10.37,19.43,19.43,0,0,1,7.74-1.51,17.62,17.62,0,0,1,8.28,1.84,16.45,16.45,0,0,1,5.8,4.93A20.48,20.48,0,0,1,623.7,518a26.42,26.42,0,0,1,.72,8.28H597.56Q597.77,531.24,600.08,533.46Zm11.56-19.58a7.21,7.21,0,0,0-5.58-2,8.91,8.91,0,0,0-4.07.83,7.83,7.83,0,0,0-2.59,2,7.51,7.51,0,0,0-1.37,2.6,11.41,11.41,0,0,0-.47,2.44h16.63A11.83,11.83,0,0,0,611.64,513.88Z" transform="translate(-260.24 -444.58)" fill="#EEE"/>
  <path d="M640.18,505.17v4.75h.15a11.21,11.21,0,0,1,4.75-4.39,14.59,14.59,0,0,1,6.33-1.37,16.11,16.11,0,0,1,7.57,1.66,15.47,15.47,0,0,1,5.25,4.39,18.73,18.73,0,0,1,3.1,6.37,28.39,28.39,0,0,1,1,7.6,25.71,25.71,0,0,1-1,7.2,18.71,18.71,0,0,1-3.06,6.12A14.88,14.88,0,0,1,652,543.33a14.43,14.43,0,0,1-6.37-1.41,12,12,0,0,1-4.79-4.14h-.14v17.64H630.46V505.17Zm13.29,29.52a8.18,8.18,0,0,0,2.73-2.63,10.79,10.79,0,0,0,1.48-3.78,22.15,22.15,0,0,0,.43-4.39,20.78,20.78,0,0,0-.47-4.39,11.5,11.5,0,0,0-1.55-3.86,8.6,8.6,0,0,0-2.77-2.73,7.72,7.72,0,0,0-4.14-1,7.85,7.85,0,0,0-4.21,1,8.2,8.2,0,0,0-2.73,2.7,11.11,11.11,0,0,0-1.48,3.81,22.59,22.59,0,0,0-.43,4.47,20.77,20.77,0,0,0,.46,4.39,11.44,11.44,0,0,0,1.52,3.78,8,8,0,0,0,2.77,2.63,9.22,9.22,0,0,0,8.39,0Z" transform="translate(-260.24 -444.58)" fill="#EEE"/>
  <path d="M685.4,533.46q2.29,2.24,6.62,2.24a9.13,9.13,0,0,0,5.33-1.55,6.45,6.45,0,0,0,2.74-3.28h9q-2.16,6.71-6.63,9.58a19.47,19.47,0,0,1-10.8,2.88,21.17,21.17,0,0,1-7.92-1.41,16.33,16.33,0,0,1-6-4,17.75,17.75,0,0,1-3.78-6.19,22.62,22.62,0,0,1-1.34-7.92A21.75,21.75,0,0,1,674,516a18,18,0,0,1,9.9-10.37,19.43,19.43,0,0,1,7.74-1.51,17.62,17.62,0,0,1,8.28,1.84,16.53,16.53,0,0,1,5.8,4.93A20.28,20.28,0,0,1,709,518a25.84,25.84,0,0,1,.72,8.28H682.88Q683.09,531.24,685.4,533.46ZM697,513.88c-1.22-1.34-3.08-2-5.58-2a8.89,8.89,0,0,0-4.06.83,8,8,0,0,0-2.6,2,7.65,7.65,0,0,0-1.36,2.6,11.41,11.41,0,0,0-.47,2.44h16.63A11.74,11.74,0,0,0,697,513.88Z" transform="translate(-260.24 -444.58)" fill="#EEE"/>
  <path d="M725.5,505.17v6.91h.15a12.12,12.12,0,0,1,1.94-3.2,12.45,12.45,0,0,1,2.81-2.52,13.32,13.32,0,0,1,3.38-1.62,12.05,12.05,0,0,1,3.75-.58,8,8,0,0,1,2.23.36V514c-.48-.09-1.06-.18-1.73-.25a18.69,18.69,0,0,0-1.94-.1,11,11,0,0,0-4.76.93,8.23,8.23,0,0,0-3.13,2.56,10.18,10.18,0,0,0-1.69,3.78,20.36,20.36,0,0,0-.5,4.68v16.77H715.78V505.17Z" transform="translate(-260.24 -444.58)" fill="#EEE"/>
  <path d="M640.46,459.14a4.42,4.42,0,0,1,2.13-1.28,7.11,7.11,0,0,1,2.85,0,15.8,15.8,0,0,1,1.9.44A31.85,31.85,0,0,1,640,454q-.46,3.4-.95,6.78C639.56,460.15,640,459.61,640.46,459.14Z" transform="translate(-260.24 -444.58)" fill="#4e4ece"/>
  <path d="M666.56,459.34a36.7,36.7,0,0,1-9.29,1C650.91,471,644.56,479.72,638.2,485a33.13,33.13,0,0,0,9.36,5.89C653.9,482.62,660.23,471.65,666.56,459.34Z" transform="translate(-260.24 -444.58)" fill="#4e4ece"/>
  <path d="M667.21,485.23a16.41,16.41,0,0,1-1.82,3.71,10.29,10.29,0,0,1-2.88,2.89,7.31,7.31,0,0,1-2.62,1.07,41.23,41.23,0,0,0,7.48-1.17q.36-4.53.71-9.06C667.8,483.51,667.51,484.37,667.21,485.23Z" transform="translate(-260.24 -444.58)" fill="#4e4ece"/>
  <path d="M672.42,462.52a17.93,17.93,0,0,1,2.14-3.52,15.12,15.12,0,0,1,2.84-2.75,16.47,16.47,0,0,1,1.91-1.2c-2.44,1-4.88,1.95-7.32,2.76-.31,2.62-.63,5.23-1,7.85C671.52,464.52,672,463.46,672.42,462.52Z" transform="translate(-260.24 -444.58)" fill="#4e4ece"/>
  <path d="M698.52,447.18c-3.09,1-6.19,2.28-9.29,3.6-6.35,13.58-12.71,27.42-19.07,40.19a98.05,98.05,0,0,0,9.36-3.43C685.86,474.05,692.19,460.15,698.52,447.18Z" transform="translate(-260.24 -444.58)" fill="#4e4ece"/>
  <path d="M699.17,473a19.82,19.82,0,0,1-1.82,3.93,16.66,16.66,0,0,1-2.87,3.47,14.07,14.07,0,0,1-2.63,1.87c2.49-1,5-2,7.49-2.78.23-3,.47-6.07.7-9.11C699.76,471.24,699.47,472.11,699.17,473Z" transform="translate(-260.24 -444.58)" fill="#4e4ece"/>
  <path d="M704.87,450.27a13.33,13.33,0,0,1,2.13-3.16,8.52,8.52,0,0,1,2.85-2,7.79,7.79,0,0,1,1.9-.53,39,39,0,0,0-7.31.93c-.31,2.59-.63,5.17-1,7.76C704,452.17,704.43,451.16,704.87,450.27Z" transform="translate(-260.24 -444.58)" fill="#4e4ece"/>
  <path d="M731,451.2a31.24,31.24,0,0,0-9.29-5.16c-6.36,8.7-12.71,20-19.07,32.5a40.37,40.37,0,0,1,9.36-1.39C718.31,466.17,724.64,457.07,731,451.2Z" transform="translate(-260.24 -444.58)" fill="#4e4ece"/>
  <path d="M731.62,477.76a4.77,4.77,0,0,1-1.82,1.9,5.25,5.25,0,0,1-2.88.54,10.54,10.54,0,0,1-2.62-.54,33.88,33.88,0,0,1,7.49,4.78c.23-2.76.47-5.52.7-8.28C732.21,476.68,731.92,477.22,731.62,477.76Z" transform="translate(-260.24 -444.58)" fill="#4e4ece"/>
</svg>
