<svg id="Layer_1" data-name="Layer 1" xmlns="http://www.w3.org/2000/svg" viewBox="0 0 200.7 102.85">
  <title>Untitled-1</title>
  <g>
    <g>
      <path d="M138.11,218.85a9.35,9.35,0,0,1,4.55-2.72,15.06,15.06,0,0,1,6.06-.09,34.79,34.79,0,0,1,4.05.94,67.83,67.83,0,0,1-15.56-9.13q-1,7.25-2,14.43C136.2,221,137.18,219.85,138.11,218.85Z" transform="translate(-133.3 -187.85)" fill="#4e4ece"/>
      <path d="M193.67,219.28a79.24,79.24,0,0,1-19.77,2.15c-13.53,22.74-27.07,41.22-40.6,52.55a70.47,70.47,0,0,0,19.93,12.53C166.71,268.83,180.19,245.47,193.67,219.28Z" transform="translate(-133.3 -187.85)" fill="#4e4ece"/>
      <path d="M195.05,274.38a34.77,34.77,0,0,1-3.88,7.9,22.08,22.08,0,0,1-6.11,6.15,15.51,15.51,0,0,1-5.59,2.26,86.15,86.15,0,0,0,15.93-2.48q.76-9.63,1.51-19.29C196.31,270.71,195.69,272.54,195.05,274.38Z" transform="translate(-133.3 -187.85)" fill="#4e4ece"/>
    </g>
    <g>
      <path d="M206.14,226a36.63,36.63,0,0,1,4.55-7.47,32.06,32.06,0,0,1,6.06-5.86,33.92,33.92,0,0,1,4.05-2.56c-5.19,2.15-10.38,4.16-15.56,5.88q-1,8.35-2,16.7C204.22,230.29,205.2,228.05,206.14,226Z" transform="translate(-133.3 -187.85)" fill="#4e4ece"/>
      <path d="M261.7,193.38c-6.59,2.2-13.18,4.87-19.77,7.68-13.54,28.89-27.07,58.36-40.61,85.54a208.08,208.08,0,0,0,19.94-7.31C234.74,250.58,248.22,221,261.7,193.38Z" transform="translate(-133.3 -187.85)" fill="#4e4ece"/>
      <path d="M263.07,248.35a41.24,41.24,0,0,1-3.87,8.35,34.18,34.18,0,0,1-6.12,7.39,28.41,28.41,0,0,1-5.59,4c5.31-2.18,10.63-4.21,15.94-5.91q.75-9.69,1.51-19.39C264.33,244.59,263.71,246.46,263.07,248.35Z" transform="translate(-133.3 -187.85)" fill="#4e4ece"/>
    </g>
    <g>
      <path d="M275.2,200a27.48,27.48,0,0,1,4.55-6.72,18.11,18.11,0,0,1,6.06-4.27,16.93,16.93,0,0,1,4.05-1.13,81.28,81.28,0,0,0-15.56,2q-1,8.25-2,16.51C273.29,204,274.27,201.87,275.2,200Z" transform="translate(-133.3 -187.85)" fill="#4e4ece"/>
      <path d="M330.76,202A66.44,66.44,0,0,0,311,191c-13.53,18.51-27.07,42.53-40.6,69.16a85.25,85.25,0,0,1,19.93-2.95C303.8,233.81,317.28,214.45,330.76,202Z" transform="translate(-133.3 -187.85)" fill="#4e4ece"/>
      <path d="M332.14,258.48a10.12,10.12,0,0,1-3.88,4,11.21,11.21,0,0,1-6.11,1.14,22.72,22.72,0,0,1-5.59-1.14,70.82,70.82,0,0,1,15.93,10.17q.76-8.83,1.51-17.63Z" transform="translate(-133.3 -187.85)" fill="#4e4ece"/>
    </g>
  </g>
</svg>
