<svg id="soundsleeper-favicon" xmlns="http://www.w3.org/2000/svg" viewBox="0 0 961.89 492.91">
  <title>favicon</title>
  <path d="M42.13,402.14a44.63,44.63,0,0,1,21.79-13.05C72.27,386.94,82,387,93,388.68a170.68,170.68,0,0,1,19.39,4.48C87.51,382.89,62.66,368.57,37.8,349.4Q33,384.13,28.1,418.59C32.94,412.46,37.64,406.94,42.13,402.14Z" transform="translate(-19.05 -253.54)" fill="#4e4ece"/>
  <path d="M308.4,404.2c-31.59,7.2-63.17,11.17-94.75,10.29-64.86,109-129.73,197.57-194.6,251.87,31.85,27.73,63.7,47.2,95.55,60C179.2,641.68,243.8,529.71,308.4,404.2Z" transform="translate(-19.05 -253.54)" fill="#4e4ece"/>
  <path d="M315,668.26a166.6,166.6,0,0,1-18.58,37.88,105.86,105.86,0,0,1-29.3,29.45,74.18,74.18,0,0,1-26.8,10.87,414.79,414.79,0,0,0,76.38-11.89q3.6-46.22,7.22-92.47C321,650.68,318.05,659.44,315,668.26Z" transform="translate(-19.05 -253.54)" fill="#4e4ece"/>
  <path d="M368.15,436.56A178.91,178.91,0,0,1,390,400.72,154,154,0,0,1,419,372.65a167.3,167.3,0,0,1,19.4-12.25c-24.86,10.29-49.72,19.94-74.58,28.16q-4.85,40.05-9.69,80C359,457,363.66,446.22,368.15,436.56Z" transform="translate(-19.05 -253.54)" fill="#4e4ece"/>
  <path d="M634.42,280.08c-31.58,10.52-63.16,23.32-94.74,36.79-64.87,138.44-129.74,279.71-194.6,409.94,31.85-9.55,63.69-21.76,95.54-35C505.22,554.2,569.82,412.39,634.42,280.08Z" transform="translate(-19.05 -253.54)" fill="#4e4ece"/>
  <path d="M641,543.52a200.49,200.49,0,0,1-18.58,40A164.39,164.39,0,0,1,593.14,619,137.38,137.38,0,0,1,566.34,638c25.46-10.45,50.92-20.17,76.38-28.33q3.62-46.47,7.23-92.91C647.06,525.51,644.07,534.46,641,543.52Z" transform="translate(-19.05 -253.54)" fill="#4e4ece"/>
  <path d="M699.15,311.64A130.92,130.92,0,0,1,721,279.43,86.87,86.87,0,0,1,750,259a81.77,81.77,0,0,1,19.39-5.43,392.69,392.69,0,0,0-74.58,9.59q-4.85,39.53-9.69,79.15C690,331,694.67,320.74,699.15,311.64Z" transform="translate(-19.05 -253.54)" fill="#4e4ece"/>
  <path d="M965.42,321.16c-31.58-24.88-63.16-41.9-94.74-52.65C805.81,357.21,741,472.32,676.08,600c31.85-8.29,63.7-13.56,95.54-14.16C836.22,473.84,900.82,381.05,965.42,321.16Z" transform="translate(-19.05 -253.54)" fill="#4e4ece"/>
  <path d="M972,592.08a48.45,48.45,0,0,1-18.58,19.38c-7.73,4.42-17.59,6-29.31,5.48-7.67-.33-16.64-2.32-26.79-5.48,25.46,11.61,50.91,27.58,76.37,48.76q3.62-42.33,7.23-84.5C978.06,581,975.07,586.51,972,592.08Z" transform="translate(-19.05 -253.54)" fill="#4e4ece"/>
</svg>
