<svg id="favicon" data-name="Favicon" xmlns="http://www.w3.org/2000/svg" viewBox="0 0 194.7 99.77">
  <title>SoundSleeper Favicon</title>
  <path d="M7.32,80.19a9.07,9.07,0,0,1,4.41-2.64,14.55,14.55,0,0,1,5.88-.08,34.56,34.56,0,0,1,3.93.9,65.79,65.79,0,0,1-15.1-8.85q-1,7-2,14C5.46,82.28,6.41,81.16,7.32,80.19Z" transform="translate(-2.65 -50.11)" fill="#4e4ece"/>
  <path d="M61.22,80.61A76.45,76.45,0,0,1,42,82.69c-13.13,22.06-26.26,40-39.39,51A68.34,68.34,0,0,0,22,145.83C35.06,128.68,48.14,106,61.22,80.61Z" transform="translate(-2.65 -50.11)" fill="#4e4ece"/>
  <path d="M62.55,134.06a33.49,33.49,0,0,1-3.76,7.66,21.33,21.33,0,0,1-5.93,6,15.09,15.09,0,0,1-5.42,2.2,84.59,84.59,0,0,0,15.46-2.41q.72-9.36,1.46-18.72Q63.48,131.37,62.55,134.06Z" transform="translate(-2.65 -50.11)" fill="#4e4ece"/>
  <path d="M73.31,87.16a36.44,36.44,0,0,1,4.41-7.26,31.11,31.11,0,0,1,5.89-5.68,33.85,33.85,0,0,1,3.92-2.48c-5,2.09-10.06,4-15.09,5.7q-1,8.11-2,16.2C71.45,91.29,72.4,89.11,73.31,87.16Z" transform="translate(-2.65 -50.11)" fill="#4e4ece"/>
  <path d="M127.21,55.48c-6.39,2.14-12.79,4.73-19.18,7.45-13.13,28-26.26,56.62-39.39,83A200.87,200.87,0,0,0,88,138.83C101.06,111,114.13,82.27,127.21,55.48Z" transform="translate(-2.65 -50.11)" fill="#4e4ece"/>
  <path d="M128.55,108.81a41,41,0,0,1-3.76,8.1,33.57,33.57,0,0,1-5.94,7.17,28.12,28.12,0,0,1-5.42,3.86c5.15-2.12,10.31-4.08,15.46-5.73q.74-9.42,1.46-18.81C129.77,105.16,129.16,107,128.55,108.81Z" transform="translate(-2.65 -50.11)" fill="#4e4ece"/>
  <path d="M140.31,61.87a26.89,26.89,0,0,1,4.41-6.52,17.66,17.66,0,0,1,5.88-4.14,16.86,16.86,0,0,1,3.93-1.1,79.56,79.56,0,0,0-15.09,1.94q-1,8-2,16C138.45,65.79,139.4,63.71,140.31,61.87Z" transform="translate(-2.65 -50.11)" fill="#4e4ece"/>
  <path d="M194.21,63.8A64.53,64.53,0,0,0,175,53.14c-13.13,18-26.26,41.26-39.39,67.1A82.86,82.86,0,0,1,155,117.37C168.06,94.71,181.13,75.92,194.21,63.8Z" transform="translate(-2.65 -50.11)" fill="#4e4ece"/>
  <path d="M195.55,118.64a9.78,9.78,0,0,1-3.77,3.92,10.87,10.87,0,0,1-5.93,1.11,22.21,22.21,0,0,1-5.42-1.11,69,69,0,0,1,15.46,9.87q.74-8.57,1.46-17.1Z" transform="translate(-2.65 -50.11)" fill="#4e4ece"/>
</svg>
